<svg xmlns="http://www.w3.org/2000/svg" viewBox="0 0 750 500"><g id="freepik--background-complete--inject-43"><polygon points="222.95 349.21 221.61 424.05 104.16 424.33 103.99 348.48 222.95 349.21" style="fill:#ebebeb"></polygon><path d="M153.76,424.12c-.16,0,0-16.71.39-37.32s.79-37.31.94-37.3,0,16.7-.39,37.31S153.91,424.12,153.76,424.12Z" style="fill:#e0e0e0"></path><path d="M104.16,424.33a7,7,0,0,1,.48-.79l1.45-2.19,5.45-8L129.67,387c7.08-10.27,13.45-19.59,18-26.39,2.28-3.39,4.08-6.17,5.32-8.08.59-.93,1.06-1.68,1.41-2.22a5.06,5.06,0,0,1,.53-.76,8.32,8.32,0,0,1-.43.81l-1.33,2.28c-1.18,2-2.94,4.76-5.17,8.19-4.46,6.85-10.78,16.21-17.87,26.49s-13.55,19.52-18.26,26.2l-5.59,7.91-1.54,2.13A5.49,5.49,0,0,1,104.16,424.33Z" style="fill:#e0e0e0"></path><path d="M153.76,424.12a4.87,4.87,0,0,1-.54-.74l-1.46-2.17-5.31-8-17.62-26.32c-6.91-10.27-13.11-19.6-17.51-26.41-2.19-3.41-4-6.18-5.15-8.1l-1.37-2.23a5.32,5.32,0,0,1-.45-.79,5.23,5.23,0,0,1,.54.73l1.46,2.17c1.28,1.93,3.08,4.66,5.3,8l17.63,26.32c6.91,10.27,13.1,19.6,17.5,26.42,2.2,3.4,4,6.17,5.16,8.1l1.37,2.22A6.38,6.38,0,0,1,153.76,424.12Z" style="fill:#e0e0e0"></path><rect x="165.9" y="411.95" width="18.86" height="3.86" transform="translate(343.21 830.83) rotate(-178.97)" style="fill:#e0e0e0"></rect><path d="M166.84,408.65a75.5,75.5,0,0,1,9.22-.33,78.19,78.19,0,0,1,9.23.22,78,78,0,0,1-9.22.33A78.19,78.19,0,0,1,166.84,408.65Z" style="fill:#e0e0e0"></path><polygon points="191.91 348.78 191.39 377.67 187.32 374.44 182.04 377.5 182.56 348.61 191.91 348.78" style="fill:#e0e0e0"></polygon><polygon points="208.86 292.52 207.84 349.64 118.21 349.85 118.07 291.96 208.86 292.52" style="fill:#f5f5f5"></polygon><path d="M156.06,349.69c-.12,0,0-12.75.3-28.48s.6-28.47.72-28.47,0,12.75-.3,28.48S156.17,349.69,156.06,349.69Z" style="fill:#e0e0e0"></path><path d="M118.21,349.85a4.51,4.51,0,0,1,.36-.6q.42-.62,1.11-1.68c1-1.47,2.42-3.55,4.16-6.1,3.56-5.17,8.44-12.25,13.84-20.07s10.26-15,13.73-20.14c1.73-2.6,3.11-4.71,4.06-6.17l1.07-1.7a7,7,0,0,1,.4-.58,4.75,4.75,0,0,1-.33.63l-1,1.73c-.9,1.49-2.24,3.64-3.94,6.25-3.41,5.23-8.23,12.38-13.64,20.22s-10.35,14.89-13.94,20l-4.26,6c-.5.68-.89,1.23-1.18,1.63A4.21,4.21,0,0,1,118.21,349.85Z" style="fill:#e0e0e0"></path><path d="M156.06,349.69a3.5,3.5,0,0,1-.42-.56l-1.11-1.66c-1-1.47-2.35-3.55-4.05-6.1L137,321.28c-5.27-7.83-10-15-13.36-20.16-1.67-2.6-3-4.71-3.93-6.18l-1-1.7c-.23-.39-.35-.6-.34-.6a3.32,3.32,0,0,1,.41.56l1.12,1.65c1,1.48,2.35,3.55,4,6.11l13.46,20.09c5.27,7.83,10,14.95,13.35,20.15,1.68,2.6,3,4.72,3.94,6.19l1.05,1.69A5.07,5.07,0,0,1,156.06,349.69Z" style="fill:#e0e0e0"></path><rect x="165.32" y="340.4" width="14.39" height="2.95" transform="matrix(-1, -0.02, 0.02, -1, 338.88, 686.79)" style="fill:#e0e0e0"></rect><path d="M166,337.88a60.2,60.2,0,0,1,7-.25,61.25,61.25,0,0,1,7,.17,57.68,57.68,0,0,1-7,.25A56.36,56.36,0,0,1,166,337.88Z" style="fill:#ebebeb"></path><polygon points="190.74 292.2 190.34 314.25 187.24 311.78 183.21 314.12 183.6 292.07 190.74 292.2" style="fill:#e0e0e0"></polygon><path d="M218.58,418.93a16.31,16.31,0,0,0-14.71-11.08L201.12,256.5h13.24v2.26h2.49v-5.42H196.28S198.73,365,200.51,408a17.68,17.68,0,0,0-2.61.63,16.32,16.32,0,0,0-11.11,15.78l-46.9-.62,1.34,6.16,46.23-1.27c.06.21.11.42.18.64a16.33,16.33,0,1,0,30.94-10.43Z" style="fill:#e0e0e0"></path><polygon points="148.88 438.96 151.36 438.96 156.14 429.58 152.19 429.69 148.88 438.96" style="fill:#e0e0e0"></polygon><rect x="486.52" y="43.21" width="46.96" height="12.98" style="fill:#ebebeb"></rect><rect x="526.67" y="317.97" width="46.96" height="12.98" style="fill:#ebebeb"></rect><rect x="474.6" y="56.18" width="46.96" height="12.98" style="fill:#f5f5f5"></rect><rect x="510" y="331.36" width="33.74" height="12.98" style="fill:#f5f5f5"></rect><rect x="244.46" y="86.4" width="101.16" height="206.87" style="fill:#ebebeb"></rect><path d="M295,86.4s-20.74,93.84-50.58,100.25c0,0,12,65.83,13.15,106.62H244.46V86.4Z" style="fill:#e0e0e0"></path><path d="M295.38,86.4S316.12,180.24,346,186.65c0,0-12,65.83-13.14,106.62H346V86.4Z" style="fill:#e0e0e0"></path><rect x="293.2" y="86" width="3.69" height="207.27" style="fill:#fafafa"></rect><rect x="267.86" y="86" width="0.91" height="207.27" style="fill:#fafafa"></rect><rect x="322.47" y="86" width="0.91" height="207.27" style="fill:#fafafa"></rect><polygon points="345.62 137.4 345.62 138.23 244.46 138.64 244.46 137.81 345.62 137.4" style="fill:#fafafa"></polygon><polygon points="345.62 240.32 345.62 241.13 244.46 241.54 244.46 240.73 345.62 240.32" style="fill:#fafafa"></polygon><rect x="244.46" y="187.76" width="101.16" height="3.45" style="fill:#fafafa"></rect><path d="M347.12,294.77H243V84.9H347.12Zm-101.16-3h98.16V87.9H246Z" style="fill:#f5f5f5"></path><rect x="540.49" y="86.4" width="101.16" height="206.87" style="fill:#ebebeb"></rect><path d="M591.07,86.4s-20.74,93.84-50.58,100.25c0,0,12,65.83,13.14,106.62H540.49V86.4Z" style="fill:#e0e0e0"></path><path d="M591.41,86.4S612.15,180.24,642,186.65c0,0-12,65.83-13.15,106.62H642V86.4Z" style="fill:#e0e0e0"></path><rect x="589.22" y="86" width="3.69" height="207.27" style="fill:#fafafa"></rect><rect x="563.88" y="86" width="0.91" height="207.27" style="fill:#fafafa"></rect><rect x="618.49" y="86" width="0.91" height="207.27" style="fill:#fafafa"></rect><polygon points="641.65 137.4 641.65 138.23 540.49 138.64 540.49 137.81 641.65 137.4" style="fill:#fafafa"></polygon><polygon points="641.65 240.32 641.65 241.13 540.49 241.54 540.49 240.73 641.65 240.32" style="fill:#fafafa"></polygon><rect x="540.49" y="187.76" width="101.16" height="3.45" style="fill:#fafafa"></rect><path d="M643.15,294.77H539V84.9H643.15Zm-101.16-3h98.16V87.9H542Z" style="fill:#f5f5f5"></path><path d="M327.09,409.32a18.71,18.71,0,0,0-11.61-1.41c-2.11.35-4.31,1-5.74,2.56s-1.71,4.37-.06,5.73a5.46,5.46,0,0,0,3.62.92c3.07,0,6.47-.58,8.93,1.27,1.4,1.06,2.33,2.81,4,3.33a4,4,0,0,0,4.36-1.94,6.83,6.83,0,0,0,.49-5A7.64,7.64,0,0,0,327.09,409.32Z" style="fill:#ebebeb"></path><path d="M335.19,393.69c-2.16,3.09-6.36,2.07-8.31.18s-2.77-4.61-3.52-7.21c-1.71-6-3.44-12.19-2.16-18.25a10.06,10.06,0,0,1,2.33-5,5.31,5.31,0,0,1,5-1.67c2.11.56,3.43,2.63,4.38,4.61a43.35,43.35,0,0,1,4.3,18.66c0,3-.34,6.16-2,8.64" style="fill:#ebebeb"></path><path d="M341.12,398.12a11.22,11.22,0,0,1-1.74-10.33,19.85,19.85,0,0,1,6.12-8.88,32.94,32.94,0,0,1,11-6.47,11.76,11.76,0,0,1,4.93-.83,5.16,5.16,0,0,1,4.13,2.5c1.16,2.2.05,4.87-1.15,7a81.92,81.92,0,0,1-7.2,11c-2.15,2.78-4.62,5.52-7.91,6.78s-6.71,1.11-8.45-1.17" style="fill:#ebebeb"></path><path d="M335.34,440.25a5.91,5.91,0,0,1-.2-1.4c-.1-1-.22-2.31-.37-3.83s-.42-3.53-.86-5.62a44.61,44.61,0,0,0-2-6.62,24.32,24.32,0,0,0-3.39-6,12.59,12.59,0,0,0-4.27-3.55,11.74,11.74,0,0,0-3.61-1.12,6.14,6.14,0,0,1-1.39-.21,7.07,7.07,0,0,1,1.42,0,10.75,10.75,0,0,1,3.75,1,12.54,12.54,0,0,1,4.52,3.59,23.76,23.76,0,0,1,3.5,6.11,41.12,41.12,0,0,1,2,6.74,49.08,49.08,0,0,1,.75,5.68c.12,1.63.16,2.94.18,3.85A7.13,7.13,0,0,1,335.34,440.25Z" style="fill:#e0e0e0"></path><path d="M335.07,437.3a3,3,0,0,1,0-.65c0-.49,0-1.1,0-1.86,0-1.61,0-4-.08-6.84-.15-5.77-.64-13.73-1.6-22.49s-2.25-16.64-3.42-22.29c-.28-1.42-.55-2.7-.82-3.81s-.46-2.09-.66-2.87-.32-1.33-.44-1.81a2.68,2.68,0,0,1-.11-.64,3.36,3.36,0,0,1,.22.61c.15.47.32,1.06.54,1.79s.49,1.73.77,2.84.6,2.39.9,3.8a212.92,212.92,0,0,1,3.59,22.31c1,8.78,1.4,16.77,1.44,22.56,0,2.89,0,5.23-.11,6.85,0,.75-.08,1.37-.11,1.86A2.52,2.52,0,0,1,335.07,437.3Z" style="fill:#e0e0e0"></path><path d="M335,421.89a12.49,12.49,0,0,1,0-1.94c.07-1.25.24-3.06.59-5.27a71.18,71.18,0,0,1,1.71-7.67,68.17,68.17,0,0,1,3.21-9.08A48.32,48.32,0,0,1,350,383.26a23.66,23.66,0,0,1,2.21-2.06c.34-.29.64-.58.95-.8l.86-.6a10.86,10.86,0,0,1,1.64-1,56,56,0,0,0-5.37,4.78,51,51,0,0,0-9.19,14.62,73.53,73.53,0,0,0-3.22,9,78,78,0,0,0-1.82,7.59c-.41,2.19-.64,4-.78,5.22A11.41,11.41,0,0,1,335,421.89Z" style="fill:#e0e0e0"></path></g><g id="freepik--Floor--inject-43"><path d="M627.51,441c0,.14-113.06.26-252.5.26s-252.52-.12-252.52-.26,113-.26,252.52-.26S627.51,440.86,627.51,441Z" style="fill:#263238"></path></g><g id="freepik--Plant--inject-43"><path d="M556.8,408.35c-14.54-9.52-18.23-27.74-18.07-44.2,0-2.75-.34-5.63.92-8.07s4.31-4.16,6.83-3.07c2.09.91,3,3.26,4.25,5.2a16.17,16.17,0,0,0,6.68,6c1.79.87,4,1.37,5.72.38,2.37-1.37,2.57-4.65,2.49-7.38q-.24-7.63-.47-15.26a24.89,24.89,0,0,1,.63-8.13c.8-2.61,2.64-5.07,5.26-5.86s5.9.63,6.52,3.29a25.64,25.64,0,0,1,.17,3.4,2.87,2.87,0,0,0,1.76,2.66c1.12.3,2.2-.5,3-1.32,2.79-2.83,4.64-6.43,6.37-10s3.39-7.24,5.91-10.3,6-5.54,10-5.86,8.24,2,9.33,5.81-1.08,7.79-3.48,11A61.5,61.5,0,0,1,598.07,339a5,5,0,0,0-2.1,2.33c-.55,1.84,1.24,3.61,3.07,4.16,2.08.63,4.31.36,6.48.56s4.52,1.08,5.39,3.08c1.2,2.76-1.09,5.74-3.37,7.72a53.42,53.42,0,0,1-15.44,9.29c-2,.78-4.15,1.48-5.75,2.93s-2.54,3.93-1.5,5.83,3.6,2.45,5.72,2,4-1.63,6-2.43c3.76-1.51,8.68-1.37,11.19,1.82a8.52,8.52,0,0,1,1.12,7.62,19.81,19.81,0,0,1-4,6.85,53.28,53.28,0,0,1-22.33,16.29c-8.75,3.23-16.9,4.25-25.75,1.29" style="fill:#FF725E"></path><path d="M610,312s-.08.1-.26.27l-.8.74c-.71.65-1.76,1.61-3.07,2.88a101.7,101.7,0,0,0-10.29,11.51c-2,2.58-4.07,5.5-6.23,8.67s-4.45,6.58-6.71,10.25a121.24,121.24,0,0,0-6.54,11.84c-1,2.11-1.91,4.32-2.83,6.57s-1.84,4.53-2.77,6.84a248.11,248.11,0,0,0-9.22,26.51,120.87,120.87,0,0,0-4.06,22.52,88.38,88.38,0,0,0,.12,15.43c.19,1.81.37,3.22.52,4.17q.09.68.15,1.08a1.47,1.47,0,0,1,0,.37,1.8,1.8,0,0,1-.09-.36c-.05-.27-.12-.62-.2-1.08-.19-.94-.4-2.35-.62-4.16a84.19,84.19,0,0,1-.28-15.48,119.37,119.37,0,0,1,4-22.61,242.88,242.88,0,0,1,9.2-26.58c.93-2.31,1.86-4.59,2.77-6.85s1.82-4.47,2.85-6.59a122.9,122.9,0,0,1,6.59-11.87c2.28-3.67,4.58-7.07,6.76-10.24s4.27-6.08,6.29-8.65a97.65,97.65,0,0,1,10.44-11.43c1.34-1.25,2.41-2.19,3.14-2.81l.84-.71Z" style="fill:#263238"></path><path d="M575.81,357.9a6,6,0,0,1-.3-1.16c-.16-.75-.36-1.85-.59-3.2-.46-2.71-1-6.47-1.5-10.62s-1.09-7.9-1.59-10.6c-.25-1.35-.46-2.43-.61-3.19A4.83,4.83,0,0,1,571,328a6.12,6.12,0,0,1,.37,1.14c.22.74.48,1.82.77,3.16.59,2.69,1.21,6.44,1.75,10.6l1.35,10.64c.17,1.27.31,2.35.43,3.22A4.81,4.81,0,0,1,575.81,357.9Z" style="fill:#263238"></path><path d="M611.22,350.49a8.65,8.65,0,0,1-1.41.2c-.91.1-2.23.24-3.85.47-3.25.42-7.72,1.16-12.61,2.2s-9.28,2.16-12.43,3.07c-1.58.44-2.85.83-3.73,1.1a7.86,7.86,0,0,1-1.38.37,7.28,7.28,0,0,1,1.32-.56c.86-.32,2.11-.77,3.68-1.26,3.13-1,7.52-2.18,12.43-3.22a124.31,124.31,0,0,1,12.67-2.06c1.64-.18,3-.27,3.88-.31A6.56,6.56,0,0,1,611.22,350.49Z" style="fill:#263238"></path><path d="M561.27,397.28a2.16,2.16,0,0,1-.25-.42l-.64-1.26c-.55-1.09-1.31-2.69-2.21-4.68-1.82-4-4.15-9.56-6.64-15.75s-4.76-11.78-6.49-15.79L543,354.63l-.55-1.29a2,2,0,0,1-.17-.47s.11.14.26.42.38.76.64,1.26c.55,1.09,1.3,2.69,2.21,4.68,1.81,4,4.15,9.56,6.64,15.75s4.76,11.78,6.49,15.79l2.06,4.75c.22.52.4,1,.55,1.29A1.62,1.62,0,0,1,561.27,397.28Z" style="fill:#263238"></path><path d="M608.18,381.12a3.32,3.32,0,0,1-.47.2l-1.36.49-5,1.73c-4.24,1.47-10.08,3.57-16.52,5.9s-12.3,4.37-16.57,5.75c-2.14.7-3.87,1.24-5.08,1.59l-1.39.4a1.81,1.81,0,0,1-.5.1,1.77,1.77,0,0,1,.47-.2l1.36-.49,5-1.74c4.24-1.47,10.08-3.56,16.52-5.89s12.3-4.37,16.57-5.76c2.14-.69,3.87-1.23,5.08-1.58l1.39-.4A1.81,1.81,0,0,1,608.18,381.12Z" style="fill:#263238"></path></g><g id="freepik--Chronometer--inject-43"><circle cx="156.01" cy="113.71" r="56.37" style="fill:#fafafa"></circle><path d="M156,170.93a57.22,57.22,0,1,1,57.22-57.22A57.29,57.29,0,0,1,156,170.93Zm0-112.74a55.53,55.53,0,1,0,55.53,55.52A55.58,55.58,0,0,0,156,58.19Z" style="fill:#263238"></path><path d="M156.61,74.57a33.56,33.56,0,0,1-.22-5.4,33.46,33.46,0,0,1,.22-5.4,33.46,33.46,0,0,1,.22,5.4A33.56,33.56,0,0,1,156.61,74.57Z" style="fill:#263238"></path><path d="M127.46,85.22a27.14,27.14,0,0,1-3.58-3.38,28.06,28.06,0,0,1-3.26-3.69,27.14,27.14,0,0,1,3.58,3.38A28.06,28.06,0,0,1,127.46,85.22Z" style="fill:#263238"></path><path d="M120,114.89a52.81,52.81,0,0,1-6.78.22,52.81,52.81,0,0,1-6.78-.22,52.81,52.81,0,0,1,6.78-.22A52.81,52.81,0,0,1,120,114.89Z" style="fill:#263238"></path><path d="M127.33,142.56a27.28,27.28,0,0,1-2.87,3.36,18.5,18.5,0,0,1-3.2,3.06,29.13,29.13,0,0,1,2.88-3.36A18.2,18.2,0,0,1,127.33,142.56Z" style="fill:#263238"></path><path d="M191.34,148.41a50,50,0,0,0,14.33-30.8c1.76-21-7.4-32-14.18-39.39l-5.89,5.64c6,6.43,15.3,19.21,12.78,34.37a50.35,50.35,0,0,1-12.18,25.34Z" style="fill:#FF725E"></path><path d="M154.63,120.93a6.6,6.6,0,1,1,7.75-5.19A6.59,6.59,0,0,1,154.63,120.93Z" style="fill:#263238"></path><polygon points="179.39 130.04 141.13 100.73 137.49 106.28 179.39 130.04" style="fill:#263238"></polygon><path d="M205.86,113.24s0-.27,0-.81,0-1.33-.11-2.37a49.84,49.84,0,0,0-19.6-36.35,49.75,49.75,0,0,0-20.93-9.28,49.7,49.7,0,0,0-12.8-.7,51.3,51.3,0,0,0-6.66.94,52.38,52.38,0,0,0-6.64,1.89,49.68,49.68,0,0,0,0,93.36,54.15,54.15,0,0,0,6.64,1.9,50.67,50.67,0,0,0,19.47.23,49.78,49.78,0,0,0,20.92-9.28,49.88,49.88,0,0,0,19.6-36.35c.09-1,.07-1.84.11-2.37s0-.81,0-.81,0,1.1-.07,3.18a48.55,48.55,0,0,1-1.35,9A49.36,49.36,0,0,1,199,138.78,50.37,50.37,0,0,1,186.3,153a50.06,50.06,0,0,1-21.05,9.39,49.59,49.59,0,0,1-12.9.72,47.45,47.45,0,0,1-6.71-.93,51.07,51.07,0,0,1-6.69-1.9,50.06,50.06,0,0,1,0-94.12,51.07,51.07,0,0,1,6.69-1.9,50.32,50.32,0,0,1,6.71-.93,49.58,49.58,0,0,1,12.9.73,48.32,48.32,0,0,1,11.5,3.65,49,49,0,0,1,9.55,5.73A50.37,50.37,0,0,1,199,87.7,49.69,49.69,0,0,1,204.44,101a48.66,48.66,0,0,1,1.35,9C205.9,112.14,205.86,113.24,205.86,113.24Z" style="fill:#263238"></path><path d="M205.88,112.92a31.25,31.25,0,0,1-5.32.22,31.42,31.42,0,0,1-5.33-.22,32.71,32.71,0,0,1,5.33-.22A32.54,32.54,0,0,1,205.88,112.92Z" style="fill:#263238"></path><path d="M191.35,148.41a34.46,34.46,0,0,1-4.2-3.73,37.19,37.19,0,0,1-3.9-4.05,34.46,34.46,0,0,1,4.2,3.73A36.16,36.16,0,0,1,191.35,148.41Z" style="fill:#263238"></path><path d="M191.49,78.22c.14.13-1.5,1.81-3.61,3.74a29.79,29.79,0,0,1-4,3.32,31.84,31.84,0,0,1,3.7-3.65c1.06-1,2-1.83,2.74-2.44A14.14,14.14,0,0,1,191.49,78.22Z" style="fill:#263238"></path><path d="M182.58,132a6.89,6.89,0,0,1-6.66,1.94,21.82,21.82,0,0,0,3.47-.49A22.3,22.3,0,0,0,182.58,132Z" style="fill:#263238"></path><path d="M184.31,133.54a3.87,3.87,0,0,1-1.23,1.06,9.94,9.94,0,0,1-3.64,1.42,10.14,10.14,0,0,1-3.91-.09,3.83,3.83,0,0,1-1.51-.58,12.42,12.42,0,0,0,10.29-1.81Z" style="fill:#263238"></path><path d="M143.65,96.7a16.89,16.89,0,0,0-3.48-.3,16.64,16.64,0,0,0-3.39.87A5.22,5.22,0,0,1,140.13,96,5.29,5.29,0,0,1,143.65,96.7Z" style="fill:#263238"></path><path d="M144.41,95.22a22.19,22.19,0,0,0-5-.32,22.15,22.15,0,0,0-4.84,1.26,9.11,9.11,0,0,1,4.8-1.7A9,9,0,0,1,144.41,95.22Z" style="fill:#263238"></path></g><g id="freepik--character-1--inject-43"><path d="M225.23,437.54l1.63-10.18-18.23-3-2.58,15.2,1.11.26c5,1.13,25.46,5.06,29,4.55C240.11,443.77,225.23,437.54,225.23,437.54Z" style="fill:#FF725E"></path><path d="M236.74,443.47c0,.17-6.87-.78-15.29-2.13s-15.22-2.58-15.19-2.75,6.87.78,15.29,2.13S236.77,443.3,236.74,443.47Z" style="fill:#263238"></path><path d="M225.22,439.67c-.14-.1.07-.62.55-1.09s1-.67,1.1-.53-.22.55-.66,1S225.36,439.78,225.22,439.67Z" style="fill:#263238"></path><path d="M226.27,440.53c-.15-.09,0-.68.49-1.25s1-.89,1.11-.76-.19.61-.62,1.15S226.43,440.62,226.27,440.53Z" style="fill:#263238"></path><path d="M211.77,439.4c-.08,0-.31-.27-.64-.78a11.52,11.52,0,0,0-1.34-1.86,4.2,4.2,0,0,0-1.84-1.18c-.54-.16-.92-.13-.93-.23s.36-.27,1-.2a3.7,3.7,0,0,1,2.21,1.18,6.72,6.72,0,0,1,1.28,2.09C211.76,439,211.84,439.37,211.77,439.4Z" style="fill:#263238"></path><path d="M225.58,437.77c.06.15-.3.46-.86.56s-1,0-1-.2.4-.31.88-.41S225.51,437.6,225.58,437.77Z" style="fill:#263238"></path><path d="M225.45,436.73c0,.18-.52.25-1.14.16s-1.08-.3-1-.47.54-.24,1.13-.15S225.46,436.56,225.45,436.73Z" style="fill:#263238"></path><path d="M289.72,435.34l-.38-10.3-18.47.56.41,15.41,1.15,0c5.11.14,26,0,29.33-1.17C305.52,438.56,289.72,435.34,289.72,435.34Z" style="fill:#FF725E"></path><path d="M302.16,438.92c0,.18-6.89.57-15.41.89s-15.43.42-15.44.25,6.9-.57,15.42-.88S302.15,438.75,302.16,438.92Z" style="fill:#263238"></path><path d="M290.12,437.43c-.16-.07-.05-.62.33-1.17s.85-.86,1-.74-.1.58-.45,1.09S290.28,437.51,290.12,437.43Z" style="fill:#263238"></path><path d="M291.32,438.07c-.16-.05-.1-.67.24-1.32s.8-1.06.94-1-.07.63-.38,1.24S291.49,438.13,291.32,438.07Z" style="fill:#263238"></path><path d="M276.87,439.79c-.07,0-.35-.21-.77-.65a12.56,12.56,0,0,0-1.68-1.56,4.24,4.24,0,0,0-2-.8c-.56,0-.93.05-1,0s.3-.34,1-.4a3.66,3.66,0,0,1,2.4.73,6.7,6.7,0,0,1,1.66,1.8C276.78,439.38,276.94,439.74,276.87,439.79Z" style="fill:#263238"></path><path d="M290.1,435.5c.1.14-.2.51-.72.72s-1,.16-1,0,.33-.39.79-.58S290,435.35,290.1,435.5Z" style="fill:#263238"></path><path d="M289.78,434.51c0,.17-.47.34-1.09.37s-1.12-.08-1.12-.26.49-.34,1.09-.37S289.75,434.34,289.78,434.51Z" style="fill:#263238"></path><path d="M314.76,178.93l-1-3.36a30.09,30.09,0,0,0-1.63-5.67,8.76,8.76,0,0,0-1.48-2.54,13.6,13.6,0,0,0-2.59-2.57c-1-.59-.75-2,.25-2.11s3.69,1.46,5.75,4.45,2.44-2.64,2.62-4.69,1-8.36,1.69-8.78c1-.63,1.86.33,1.64,2.37s-.47,8.22.61,8.29,1.83-10.38,1.83-10.38-.2-2.27,1.06-2.23c2.26.07.63,11.1.45,12.14-.12.73,1.05.84,1.15.06s.51-10.45,2.81-10.4c1.77,0-1.25,9.08-.23,11.16s1.59-7.12,3.28-7c.62,0,1.09.15,0,5.36s-6.47,19.24-6.47,19.24l-9.82-3.51" style="fill:#ffbe9d"></path><path d="M247.2,176.17l16.62,1.23c.22-1.92.55-9.39.55-9.39s6.94-.65,7.44-7.52.3-22.72.3-22.72h0a23.93,23.93,0,0,0-24.19,1.54l-1.07.72Z" style="fill:#ffbe9d"></path><path d="M269.79,149.49a1,1,0,0,1,1.44-1.4,1,1,0,0,1-1.44,1.4Z" style="fill:#263238"></path><path d="M271.56,148c-.12.11-.76-.45-1.71-.51s-1.66.38-1.76.25.08-.26.39-.47a2.27,2.27,0,0,1,1.42-.35,2.31,2.31,0,0,1,1.35.55C271.52,147.75,271.61,148,271.56,148Z" style="fill:#263238"></path><path d="M260.6,148.17a1,1,0,0,1-1.15,1.64,1,1,0,0,1-.24-1.4A1,1,0,0,1,260.6,148.17Z" style="fill:#263238"></path><path d="M261.22,148.22c-.11.11-.75-.45-1.7-.51s-1.66.38-1.76.25.07-.26.39-.47a2.22,2.22,0,0,1,1.41-.35,2.28,2.28,0,0,1,1.35.55C261.19,148,261.28,148.17,261.22,148.22Z" style="fill:#263238"></path><path d="M264.54,156.26a4.84,4.84,0,0,1,1.55-.22c.25,0,.45-.06.48-.19a1.38,1.38,0,0,0-.13-.73c-.21-.64-.41-1.29-.63-2a26.75,26.75,0,0,1-1.32-5.15,27.18,27.18,0,0,1,1.82,5c.2.68.39,1.34.59,2a1.61,1.61,0,0,1,.07,1,.66.66,0,0,1-.45.37,1.59,1.59,0,0,1-.42,0A5,5,0,0,1,264.54,156.26Z" style="fill:#263238"></path><path d="M261.4,157.12c-.95-.65,2.63,1.61,4.56,1.63a2.62,2.62,0,0,1-3.15.85C260.8,158.72,261.4,157.12,261.4,157.12Z" style="fill:#fff"></path><path d="M264.38,167.91a16.06,16.06,0,0,1-8.8-3.1s1.81,5.08,8.71,4.88Z" style="fill:#eb996e"></path><path d="M247,147l.83,4.93,3.06-.06-.2-10.27s12.14.94,13.53-3.92c0,0,3.57,5.37,8,5.35,0,0,3.88-.4.19-5.81-5.7-8.32-26-1.63-26-1.63a14,14,0,0,0-.73,4.72C245.6,145.63,247,147,247,147Z" style="fill:#263238"></path><path d="M245.33,142l27-5.36s-1.92-10.82-16.51-7.67C241.66,132.06,245.33,142,245.33,142Z" style="fill:#FF725E"></path><path d="M245.33,142c.38-.07,33.06.7,35.39-3.82,1.11-2.16-8.56-2.22-8.56-2.22l.22.68Z" style="fill:#FF725E"></path><path d="M245.33,142c.38-.07,33.06.7,35.39-3.82,1.11-2.16-8.56-2.22-8.56-2.22l.22.68Z" style="opacity:0.2"></path><path d="M248.17,146.13c-.15-.06-5.1-.7-4.63,5.14s6.21,3.44,6.21,3.27S248.17,146.13,248.17,146.13Z" style="fill:#ffbe9d"></path><path d="M247.8,152.63s-.1.08-.27.18a1,1,0,0,1-.76.07,2.51,2.51,0,0,1-1.34-2.16,3.26,3.26,0,0,1,.17-1.48,1.16,1.16,0,0,1,.7-.85.52.52,0,0,1,.62.23c.09.16.07.28.1.29s.12-.11,0-.35a.67.67,0,0,0-.26-.35.78.78,0,0,0-.57-.1,1.46,1.46,0,0,0-1,1,3.59,3.59,0,0,0-.22,1.66,2.66,2.66,0,0,0,1.69,2.41,1.12,1.12,0,0,0,.92-.23C247.8,152.78,247.82,152.64,247.8,152.63Z" style="fill:#eb996e"></path><rect x="260.82" y="133.74" width="3.31" height="3.31" transform="translate(-2.55 5.06) rotate(-1.1)" style="fill:#263238"></rect><rect x="262.43" y="131.9" width="1.66" height="1.66" transform="translate(-2.53 5.15) rotate(-1.11)" style="fill:#263238"></rect><path d="M313.54,174.63s-5.11,32.52-8.71,32.69c-4.11.2-16.75-17.73-16.75-17.73h0c-8.09-12.48-18.76-14.5-22.65-14.81l0-1.54-19.12-1.57s0,1.65,0,3.09h-8.47s-15.16-.7-17.44,19.67l10.91,8.62,4.47,16.63c1.36,5.08-.72,11.56-3,22.94l-1.37-.32-.58,11.47c-.08.54-.16,1.09-.23,1.64h.15L226.13,347l-23.62,88.71,26.59,1,24.52-86.55s2.13-69.2,4.29-69.24c3.63-.07,5.95,153.94,7.34,153.59s28.7-.07,28.7-.07S284.91,255,285,255h0l-2.34-34-.89-9.82h0c5.19,7.3,15,18.7,25.48,18.5,17.07-.33,19.47-53.25,19.47-53.25Z" style="fill:#455a64"></path><path d="M256.93,280.23a23.61,23.61,0,0,0,1.58-3,22.3,22.3,0,0,0,1.29-7.93c0-3.12,0-5.93,0-8.17a20,20,0,0,1,.13-3.38,23.55,23.55,0,0,1,.24,3.38c.06,2.09.19,5,.16,8.18a28.66,28.66,0,0,1-.4,4.51,15.34,15.34,0,0,1-1.07,3.56,11.29,11.29,0,0,1-1.28,2.15C257.18,280,257,280.26,256.93,280.23Z" style="fill:#263238"></path><path d="M241.24,265.7a2.93,2.93,0,0,1,.14.94c.05.61.11,1.48.14,2.58a17.16,17.16,0,0,1-1.67,8.35,9.38,9.38,0,0,1-3.18,3.54,7.56,7.56,0,0,1-3.7,1.16,6,6,0,0,1-2.58-.44,2.27,2.27,0,0,1-.82-.5,7.74,7.74,0,0,0,3.38.58,7.59,7.59,0,0,0,3.46-1.21,9.23,9.23,0,0,0,3-3.38,18.18,18.18,0,0,0,1.76-8.1A34.09,34.09,0,0,1,241.24,265.7Z" style="fill:#263238"></path><path d="M286.89,281.63s-.16.29-.65.62a4.23,4.23,0,0,1-2.39.62,5.93,5.93,0,0,1-3.44-1.28,13.15,13.15,0,0,1-3-3.3,17,17,0,0,1-2.77-7.53,15.48,15.48,0,0,1-.07-2.45,2.52,2.52,0,0,1,.14-.88c.09,0,0,1.27.3,3.28a18.12,18.12,0,0,0,2.83,7.29,13.42,13.42,0,0,0,2.86,3.21,5.7,5.7,0,0,0,3.16,1.29,4.42,4.42,0,0,0,2.28-.43C286.63,281.82,286.86,281.59,286.89,281.63Z" style="fill:#263238"></path><path d="M230.32,430.82c0,.15-5.9.05-13.16-.21S204,430,204,429.87s5.9-.05,13.17.22S230.33,430.68,230.32,430.82Z" style="fill:#263238"></path><path d="M293,426.82a4.23,4.23,0,0,1-1.11.15l-3,.23c-2.56.16-6.09.35-10,.53s-7.45.31-10,.39l-3,.05a4.5,4.5,0,0,1-1.12-.05,4.84,4.84,0,0,1,1.11-.15l3-.22c2.56-.17,6.09-.36,10-.54s7.45-.31,10-.38l3-.06A5.29,5.29,0,0,1,293,426.82Z" style="fill:#263238"></path><path d="M243.94,282.35a1.65,1.65,0,0,1,0,.39v1.15c0,1-.05,2.52-.08,4.42-.09,3.83-.26,9.38-.54,16.24s-.66,15-1.2,24.07c-.27,4.53-.57,9.28-1,14.2-.21,2.46-.4,5-.83,7.5s-1,5.05-1.52,7.62c-4.56,20.45-9.68,38.71-13.68,51.84-2,6.57-3.8,11.82-5.06,15.45l-1.53,4.14c-.18.45-.31.81-.42,1.07a1.42,1.42,0,0,1-.15.36,1.52,1.52,0,0,1,.1-.37c.09-.27.21-.63.37-1.09l1.44-4.18c1.2-3.64,3-8.91,4.9-15.48,3.9-13.15,9-31.43,13.52-51.86.55-2.55,1.1-5.08,1.52-7.58s.62-5,.83-7.46c.41-4.92.72-9.67,1-14.19.56-9,1-17.21,1.31-24.06s.54-12.37.71-16.23c.07-1.9.13-3.38.17-4.42q0-.72.06-1.14A3.85,3.85,0,0,1,243.94,282.35Z" style="fill:#263238"></path><path d="M280.64,427.49a1.45,1.45,0,0,1-.05-.36c0-.26,0-.61-.08-1.06-.07-1-.16-2.33-.28-4.08-.21-3.57-.51-8.69-.89-15-.71-12.67-1.6-30.19-2.42-49.53s-1.42-36.89-1.81-49.57c-.17-6.32-.32-11.45-.41-15,0-1.75-.07-3.12-.09-4.08v-1.07a2,2,0,0,1,0-.36,2,2,0,0,1,0,.36c0,.27,0,.62.06,1.06,0,1,.1,2.34.18,4.09.14,3.57.33,8.7.58,15,.5,12.7,1.2,30.21,2,49.55s1.65,36.86,2.27,49.54c.31,6.32.55,11.44.73,15,.07,1.75.13,3.12.17,4.09,0,.44,0,.79,0,1.06A2,2,0,0,1,280.64,427.49Z" style="fill:#263238"></path><path d="M258.68,172.68a16,16,0,0,1,0,2.69,39,39,0,0,1-.66,6.69l-.06.33-.3-.16c-.64-.33-1.3-.68-1.95-1.07-2.78-1.62-5.14-3.31-6.89-4.47s-2.82-1.87-2.79-1.93a16.35,16.35,0,0,1,3,1.62c1.8,1.09,4.2,2.73,6.95,4.33.65.38,1.3.74,1.92,1.07l-.37.17a49.51,49.51,0,0,0,.82-6.6A16.71,16.71,0,0,1,258.68,172.68Z" style="fill:#263238"></path><path d="M265.48,174.91a18.88,18.88,0,0,1-.54,2.49c-.19.76-.39,1.68-.72,2.69a12.72,12.72,0,0,1-.61,1.55,1,1,0,0,1-.36.43.55.55,0,0,1-.71-.08,3.19,3.19,0,0,1-.45-.88c-.93-2.22-1.75-4.23-2.31-5.7A12.12,12.12,0,0,1,259,173a12.67,12.67,0,0,1,1.16,2.28c.65,1.44,1.52,3.43,2.45,5.65a4.64,4.64,0,0,0,.33.72c.05,0,0,0,.08,0a.6.6,0,0,0,.17-.22,14.29,14.29,0,0,0,.62-1.49c.34-1,.58-1.87.81-2.63A9.65,9.65,0,0,1,265.48,174.91Z" style="fill:#263238"></path><path d="M261.89,243.24a3.2,3.2,0,0,1-.08-.72c0-.52-.08-1.2-.14-2.05-.09-1.84-.23-4.41-.39-7.56-.29-6.43-.68-15.22-1.12-24.93s-.71-18.5-1-24.94c-.1-3.15-.17-5.71-.23-7.56,0-.85,0-1.53,0-2a5.72,5.72,0,0,1,0-.72,3.31,3.31,0,0,1,.09.71c0,.52.08,1.2.13,2.05.1,1.85.23,4.41.4,7.56.29,6.43.68,15.22,1.11,24.93s.72,18.51,1,24.94c.1,3.15.18,5.72.24,7.56,0,.85,0,1.54,0,2.06A3.07,3.07,0,0,1,261.89,243.24Z" style="fill:#263238"></path><rect x="264.89" y="193.5" width="9.19" height="1.9" transform="translate(-3.7 5.24) rotate(-1.11)" style="fill:#fff"></rect><path d="M282.81,224.44c-.15,0-.73-6.94-1.3-15.53s-.92-15.54-.78-15.55.72,6.94,1.3,15.52S283,224.43,282.81,224.44Z" style="fill:#263238"></path><path d="M326.42,183.09a48,48,0,0,1-6.9-1.31,48.74,48.74,0,0,1-6.78-1.82,48,48,0,0,1,6.9,1.31A47.14,47.14,0,0,1,326.42,183.09Z" style="fill:#263238"></path><path d="M315.53,176.94a.94.94,0,1,1-.92.95A.93.93,0,0,1,315.53,176.94Z" style="fill:#263238"></path><rect x="270.7" y="189.19" width="3.31" height="3.31" transform="translate(-3.61 5.26) rotate(-1.1)" style="fill:#FF725E"></rect><rect x="272.31" y="187.34" width="1.66" height="1.66" transform="translate(-3.61 5.35) rotate(-1.11)" style="fill:#FF725E"></rect><polygon points="323.53 206.12 322.17 259.52 238.38 259.09 238.65 204.98 323.53 206.12" style="fill:#FF725E"></polygon><path d="M273.76,259.21c-.14,0,0-11.93.42-26.63S275,206,275.11,206s0,11.92-.41,26.63S273.9,259.21,273.76,259.21Z" style="fill:#263238"></path><path d="M238.38,259.09a2.83,2.83,0,0,1,.33-.56l1-1.57,3.91-5.69,13.06-18.68c5.11-7.29,9.71-13.9,13-18.72,1.65-2.41,3-4.37,3.86-5.73l1-1.57A3.21,3.21,0,0,1,275,206a2.26,2.26,0,0,1-.3.58l-.94,1.63c-.85,1.39-2.12,3.39-3.72,5.82-3.21,4.88-7.77,11.53-12.87,18.82s-9.79,13.85-13.19,18.59l-4,5.6c-.46.62-.84,1.12-1.12,1.51A2.66,2.66,0,0,1,238.38,259.09Z" style="fill:#263238"></path><path d="M272.93,259.63c-.12.08-7.84-11.95-17.23-26.87s-16.92-27.08-16.79-27.15,7.83,11.95,17.23,26.87S273.05,259.56,272.93,259.63Z" style="fill:#263238"></path><rect x="282.48" y="250.64" width="13.45" height="2.76" transform="matrix(-1, -0.03, 0.03, -1, 571.93, 511.27)" style="fill:#263238"></rect><path d="M283.18,248.24a40.37,40.37,0,0,1,6.58-.25,40.15,40.15,0,0,1,6.58.27,43.15,43.15,0,0,1-6.58.25A43.12,43.12,0,0,1,283.18,248.24Z" style="fill:#263238"></path><polygon points="306.58 205.69 306.06 226.31 303.18 223.98 299.39 226.14 299.92 205.53 306.58 205.69" style="fill:#263238"></polygon><path d="M237,200.25s-4.06,28.34-2.14,30c10.64,8.95,25.43,13.64,30.72,15.12.77-.19,1.68-.43,2.71-.76a8.12,8.12,0,0,0,2.49-1.3,12.73,12.73,0,0,0,2.57-2.38,1.09,1.09,0,0,1,2,.37c.05,1-1.52,3.5-4.47,5.33,0,0,6.78,10.91,8.94,11.89s8.35,3.77,7.3,4.31-8.57-1.66-8.57-1.66l-15.26-4.08s-50.49-7.91-47.12-31.07c2.06-14.19,4.31-27,5.12-30.22Z" style="fill:#ffbe9d"></path><path d="M220.42,194.44l-4.53,30.92c-1,9.53,5.33,17.08,13.91,21.34,13.06,6.47,32.45,11.08,32.29,11.05S263.4,244,263.4,244s-27.18-11.77-28-16.83,3.45-26.21,3.45-26.21Z" style="fill:#455a64"></path><path d="M262.09,257.75a.73.73,0,0,1,0-.24c0-.19,0-.43,0-.72.05-.67.12-1.59.21-2.75.21-2.43.51-5.87.88-10.1l.11.18-13.68-6.62-4-1.93c-1.33-.71-2.66-1.48-4-2.33a38.12,38.12,0,0,1-3.86-2.83c-.62-.52-1.23-1.06-1.82-1.64a3.49,3.49,0,0,1-.79-1,2.56,2.56,0,0,1-.22-.62,4.56,4.56,0,0,1-.14-.64c-.44-3.37.47-6.57.93-9.61s1-6,1.53-8.82c1-5.61,1.86-10.66,2.61-14.92a32.05,32.05,0,0,0,.69-5.74,10.09,10.09,0,0,0-.88-4.22,7.06,7.06,0,0,0-1.6-2.21c-.47-.43-.76-.59-.75-.62a3.64,3.64,0,0,1,.82.54,6.68,6.68,0,0,1,1.71,2.2,10,10,0,0,1,1,4.3,31,31,0,0,1-.62,5.81c-.71,4.27-1.56,9.33-2.5,14.95l-1.5,8.83c-.13.76-.26,1.54-.4,2.32s-.28,1.54-.39,2.33a17.4,17.4,0,0,0-.12,4.78,3.73,3.73,0,0,0,.12.58,2.47,2.47,0,0,0,.19.54,2.72,2.72,0,0,0,.69.89c.57.57,1.17,1.1,1.78,1.62a39.75,39.75,0,0,0,3.8,2.79c1.3.85,2.62,1.62,3.93,2.32l3.94,1.94,13.61,6.72.12.06V244c-.44,4.23-.8,7.67-1,10.09-.13,1.16-.23,2.07-.3,2.74,0,.29-.07.52-.1.71S262.1,257.76,262.09,257.75Z" style="fill:#263238"></path><path d="M259.57,242.06a8.31,8.31,0,0,1-.16,2.11c-.17,1.3-.44,3.08-.8,5s-.77,3.72-1.11,5a8.51,8.51,0,0,1-.67,2c-.14,0,.54-3.18,1.27-7.08A59.35,59.35,0,0,1,259.57,242.06Z" style="fill:#263238"></path><path d="M262.09,257.75a1.65,1.65,0,0,1-.47-.07l-1.35-.33-4.92-1.28c-4.13-1.12-9.89-2.58-16-4.85a67.47,67.47,0,0,1-8.46-3.76,48.63,48.63,0,0,1-6.36-4.09,36.16,36.16,0,0,1-3.81-3.39c-.41-.43-.73-.78-.93-1a1.67,1.67,0,0,1-.29-.39s.49.45,1.37,1.27a41.15,41.15,0,0,0,3.89,3.23,48.61,48.61,0,0,0,6.36,4,69.73,69.73,0,0,0,8.41,3.7c6.12,2.25,11.86,3.77,16,5l4.87,1.45,1.32.41A2.63,2.63,0,0,1,262.09,257.75Z" style="fill:#263238"></path><path d="M262.43,245.37a.88.88,0,0,1-.86.9.89.89,0,0,1-.89-.86.88.88,0,0,1,.86-.9A.89.89,0,0,1,262.43,245.37Z" style="fill:#263238"></path></g><g id="freepik--character-2--inject-43"><rect x="387.72" y="100.11" width="110.36" height="340.89" style="fill:#e0e0e0"></rect><polyline points="460.13 102.72 460.13 425.76 512.93 441.01 513.1 102.72 460.13 102.72" style="fill:#455a64"></polyline><path d="M466.64,259.33c.1,2.53-.87,4.62-2.17,4.68s-2.44-2-2.54-4.49.87-4.62,2.17-4.67S466.54,256.8,466.64,259.33Z" style="fill:#fff"></path><path d="M464.2,257.45l10.4,1.39a1.15,1.15,0,0,1,1,1.1h0a1.15,1.15,0,0,1-1.35,1.18l-10-1.69Z" style="fill:#fff"></path><polygon points="374.83 88.06 374.83 99.21 374.83 102.72 374.83 441.01 392.16 441.01 392.16 102.72 493.86 102.72 493.86 441.01 512.93 441.01 512.93 102.72 512.93 99.21 512.93 88.06 374.83 88.06" style="fill:#263238"></polygon><rect x="383.5" y="102.72" width="8.66" height="338.28" style="fill:#263238"></rect><rect x="383.5" y="102.72" width="8.66" height="338.28" style="opacity:0.5"></rect><rect x="504.44" y="88.06" width="8.66" height="352.95" style="fill:#263238"></rect><rect x="504.44" y="88.06" width="8.66" height="352.95" style="opacity:0.5"></rect><rect x="427.3" y="67.46" width="28.46" height="6.35" style="fill:#455a64"></rect><path d="M444.81,155.8A14.39,14.39,0,0,0,455.71,169c3.09.75,6.65.4,9.1,2.47,4.2,3.57,1.74,11,4.58,15.73,1.74,2.94,5.2,4.38,7.16,7.17,3.26,4.63,1.07,11.64-3.37,15.09s-10.37,4.11-15.93,4c-12.25-.32-24.8-4.21-33.65-12.89-4.16-4.08-17.65-19.59-11.52-41.94" style="fill:#263238"></path><path d="M400.57,188.68s-21.43,18.63-22,16.36c-3-12.33-2.16-28.08-1.67-34.11.33-.51.72-1.08,1.18-1.71a7.71,7.71,0,0,1,1.91-1.87,12.48,12.48,0,0,1,2.92-1.64,1,1,0,0,0,.28-1.91c-.86-.32-3.6.39-6.14,2.51s-1.5-2.92-1.16-4.76,1.14-7.6.65-8.14c-.71-.8-1.71-.16-2,1.69s-1.6,7.34-2.57,7.14.93-9.58.93-9.58.72-1.95-.39-2.22c-2-.49-3.26,9.61-3.36,10.57-.07.67-1.13.49-1-.23s2.09-9.31.06-9.83c-1.56-.4-1.12,8.29-2.52,9.87s.34-6.64-1.17-7c-.56-.12-1-.13-1.31,4.72a106.66,106.66,0,0,0,.42,11.7c-1.33,13.3-3.94,54.05,14.47,52.65,21.72-1.66,26.72-18.78,26.72-18.78Z" style="fill:#b78876"></path><path d="M417.69,182.62c.31-1.72-.24-8.94-.24-8.94s-6.41-.81-6.68-7.34.37-21.59.37-21.59l11.79-5.66,12.68,10.22-2.2,33.2Z" style="fill:#b78876"></path><path d="M412.23,155.75a.82.82,0,1,0,.83-.82A.83.83,0,0,0,412.23,155.75Z" style="fill:#263238"></path><path d="M411.46,154.82c.1.11.71-.4,1.59-.43s1.53.41,1.62.29-.06-.26-.35-.46a2.07,2.07,0,0,0-1.3-.38,2.15,2.15,0,0,0-1.26.49C411.49,154.56,411.41,154.77,411.46,154.82Z" style="fill:#263238"></path><path d="M421.66,155.91a.82.82,0,1,0,.83-.82A.83.83,0,0,0,421.66,155.91Z" style="fill:#263238"></path><path d="M421.17,155c.11.11.72-.4,1.6-.44s1.52.42,1.62.3-.06-.26-.35-.47a2.12,2.12,0,0,0-2.56.12C421.21,154.73,421.12,154.94,421.17,155Z" style="fill:#263238"></path><path d="M417.88,162.54a4.81,4.81,0,0,0-1.43-.22c-.22,0-.44-.06-.48-.22a1.43,1.43,0,0,1,.14-.72l.63-1.85a33.84,33.84,0,0,0,1.42-4.84,34.13,34.13,0,0,0-1.77,4.71c-.21.66-.42,1.27-.61,1.87a1.47,1.47,0,0,0-.1.94.54.54,0,0,0,.37.34,1.36,1.36,0,0,0,.38,0A5.54,5.54,0,0,0,417.88,162.54Z" style="fill:#263238"></path><path d="M420.76,163.44c.9-.59-2.48,1.45-4.26,1.42a2.39,2.39,0,0,0,2.89.9A1.9,1.9,0,0,0,420.76,163.44Z" style="fill:#fff"></path><path d="M417.45,173.68a15.62,15.62,0,0,0,8.48-2.78s-2,4.77-8.37,4.38Z" style="fill:#a36957"></path><path d="M444.81,155.9c-.06-.46-.13-1.16-.2-1.89h0c-.1-1-.21-2.08-.34-2.66-3.24-13.67-14.86-16.41-17.16-16.45-2.48-.05-6.78-1.52-13.21,5.1a12.86,12.86,0,0,0-3.09,13.91l1.08-1,9.35-2.3c-.7-2.59.44-5.77,1.08-7.25l.06-.06c1.69,9.81,12.16,11,12.16,11l-1,26c10.31-2.08,11.13-18.8,11.11-24.46Z" style="fill:#263238"></path><path d="M448.86,272.6c0-.13,0-.26,0-.34S448.88,272.42,448.86,272.6Z" style="fill:#b78876"></path><path d="M448.82,272.9c0-.12,0-.22,0-.3Z" style="fill:#b78876"></path><path d="M461,431.13s-24.14-81.37-24.6-84c-.42-2.35,10.76-59.44,12.38-74.25l-33.94.32s0,.09,0,.25l-16.4.45,8.21,162.6,18,.47-.27-53.45c8.9,26.1,20.16,55.59,20.16,55.59Z" style="fill:#b78876"></path><path d="M448.9,272.22Z" style="fill:#b78876"></path><path d="M448.89,272.26v0A.08.08,0,0,1,448.89,272.26Z" style="fill:#b78876"></path><path d="M413.59,343.49c.05,0,0,.64-.11,1.78a35.65,35.65,0,0,0,.09,4.82,44.06,44.06,0,0,0,1.2,7.05,68.76,68.76,0,0,0,2.88,8.3c2.23,5.84,4.23,11.13,5.65,15L425,385a11.75,11.75,0,0,1,.54,1.7,13,13,0,0,1-.73-1.63l-1.81-4.5c-1.51-3.81-3.56-9.09-5.8-14.93-.55-1.46-1.09-2.89-1.62-4.27a37.59,37.59,0,0,1-1.23-4.09,41.15,41.15,0,0,1-1.11-7.14,30.43,30.43,0,0,1,.08-4.87c.06-.57.13-1,.19-1.31A1.45,1.45,0,0,1,413.59,343.49Z" style="fill:#a36957"></path><path d="M424.47,402.94c0-.49.32-18.12.32-18.12s-5.92-16.34-6.07-15.85S424.47,402.94,424.47,402.94Z" style="fill:#a36957"></path><path d="M445.16,438.83h0l15.88-7.7,1.83,3.41-5.61,3.17c-3.83,2.09-16.85,8.91-19.93,9.46C433.9,447.79,445.16,438.83,445.16,438.83Z" style="fill:#FF725E"></path><path d="M436.62,446.71c-.08-.12,5.72-3,12.95-6.41s13.14-6.08,13.21-6-5.72,3-12.95,6.4S436.69,446.83,436.62,446.71Z" style="fill:#263238"></path><path d="M458.74,436.37c-.08,0-.11-.3-.08-.78a4.59,4.59,0,0,1,.51-1.83,3.1,3.1,0,0,1,1.51-1.39c.53-.21.9-.16.9-.11s-.3.16-.7.41a3.66,3.66,0,0,0-1.21,1.3,9.37,9.37,0,0,0-.62,1.68C458.92,436.1,458.81,436.38,458.74,436.37Z" style="fill:#263238"></path><path d="M444.3,439.56c0,.14.49.33,1.12.54s1.16.35,1.25.23-.36-.5-1.05-.73S444.32,439.41,444.3,439.56Z" style="fill:#263238"></path><path d="M443.21,440.41c0,.15.42.42,1,.61s1.16.25,1.23.11-.4-.4-1-.6S443.25,440.27,443.21,440.41Z" style="fill:#263238"></path><path d="M442.31,441.2c-.06.13.28.38.72.61s.87.36,1,.25-.19-.45-.67-.7S442.38,441.06,442.31,441.2Z" style="fill:#263238"></path><path d="M444.37,439.69a3.33,3.33,0,0,0-.17-1.67,4.78,4.78,0,0,0-.82-1.7,4.26,4.26,0,0,0-.86-.83,2.69,2.69,0,0,0-.61-.33,1.19,1.19,0,0,0-.87,0,.9.9,0,0,0-.3,1.35,6.35,6.35,0,0,0,.74.9,11.08,11.08,0,0,0,1.48,1.26,5,5,0,0,0,1.58.9c.06-.06-.49-.47-1.3-1.17a15.91,15.91,0,0,1-1.34-1.3,6.06,6.06,0,0,1-.64-.82c-.18-.26-.13-.58.05-.65s.55,0,.85.25a3.72,3.72,0,0,1,.77.7,5.24,5.24,0,0,1,.87,1.53A9.05,9.05,0,0,0,444.37,439.69Z" style="fill:#263238"></path><path d="M444.37,439.38a4.38,4.38,0,0,0-1.57-1,8.78,8.78,0,0,0-2-.61,7.09,7.09,0,0,0-1.25-.11,3.07,3.07,0,0,0-.71.09,1,1,0,0,0-.4.19.55.55,0,0,0-.21.47,1.63,1.63,0,0,0,1,1.06,4.44,4.44,0,0,0,1.22.39,9.44,9.44,0,0,0,2.09.06c1.21-.07,1.87-.49,1.81-.54a17.32,17.32,0,0,1-1.83.17,11,11,0,0,1-2-.17,3.87,3.87,0,0,1-1-.35c-.3-.16-.64-.46-.66-.65s.37-.22.75-.2a6.09,6.09,0,0,1,1.14.06,10.93,10.93,0,0,1,1.9.48A12,12,0,0,0,444.37,439.38Z" style="fill:#263238"></path><path d="M445.47,438.66c.09.15,3.78-1.26,8.07-3.37s7.6-4,7.49-4.16-3.61,1.53-7.89,3.63S445.37,438.51,445.47,438.66Z" style="fill:#263238"></path><path d="M408.71,436.32h0l15.93.12-.27,4.61h-1c-4.62,0-23.51-.34-26.54-1.31C393.41,438.68,408.71,436.32,408.71,436.32Z" style="fill:#FF725E"></path><path d="M396.44,439c0-.13,6.27.11,14,.54s13.95.9,13.94,1-6.26-.1-14-.53S396.43,439.16,396.44,439Z" style="fill:#263238"></path><path d="M419.32,440.26c-.06-.05.09-.31.41-.7a5.56,5.56,0,0,1,1.56-1.32,3.85,3.85,0,0,1,2.17-.47c.58.07.88.28.85.33s-.36,0-.87,0a4.33,4.33,0,0,0-1.84.54,9.75,9.75,0,0,0-1.56,1.13C419.65,440.11,419.38,440.3,419.32,440.26Z" style="fill:#263238"></path><path d="M407.51,436.54c-.11.11.23.52.66,1s.8.85.95.78,0-.59-.48-1.1S407.62,436.43,407.51,436.54Z" style="fill:#263238"></path><path d="M406,436.76c-.12.1.12.55.54,1s.87.75,1,.67-.1-.53-.54-1S406.16,436.66,406,436.76Z" style="fill:#263238"></path><path d="M404.78,437c-.14.08,0,.45.26.85s.53.71.69.66.11-.47-.16-.9S404.91,436.92,404.78,437Z" style="fill:#263238"></path><path d="M407.5,436.69a3.74,3.74,0,0,0,.86-1.49,4.41,4.41,0,0,0,.31-1.83,3.23,3.23,0,0,0-.25-1.11,2.21,2.21,0,0,0-.33-.56,1.18,1.18,0,0,0-.77-.4,1,1,0,0,0-1.09,1,5.32,5.32,0,0,0,.11,1.1,9,9,0,0,0,.52,1.76,3.94,3.94,0,0,0,.85,1.5,6.81,6.81,0,0,0-.44-1.6,12.22,12.22,0,0,1-.38-1.73,5.54,5.54,0,0,1-.06-1c0-.3.23-.54.44-.52s.46.28.59.61a3,3,0,0,1,.25,1,4.83,4.83,0,0,1-.16,1.7A7.81,7.81,0,0,0,407.5,436.69Z" style="fill:#263238"></path><path d="M407.69,436.43a3.7,3.7,0,0,0-.79-1.56,7.41,7.41,0,0,0-1.36-1.44,6.23,6.23,0,0,0-1-.68,2.92,2.92,0,0,0-.67-.26,1.2,1.2,0,0,0-.47,0,.66.66,0,0,0-.47.3,1.36,1.36,0,0,0,.2,1.34,3.27,3.27,0,0,0,.83.9,9,9,0,0,0,1.8,1,3,3,0,0,0,1.92.38,13.65,13.65,0,0,1-1.71-.71,10.19,10.19,0,0,1-1.63-1.06,3.42,3.42,0,0,1-.69-.78,1.09,1.09,0,0,1-.18-.86c0-.09.45,0,.77.18a5,5,0,0,1,1,.59,8.78,8.78,0,0,1,1.38,1.29C407.24,435.9,407.6,436.46,407.69,436.43Z" style="fill:#263238"></path><path d="M409.08,436.32a41.47,41.47,0,0,0,7.65.51,47.92,47.92,0,0,0,7.66-.27,66.65,66.65,0,0,0-7.65-.26C412.52,436.26,409.09,436.18,409.08,436.32Z" style="fill:#263238"></path><path d="M457.43,216.75s.65-2.44-1.2-17.39c-.8-6.51-5.23-10.55-10-13v-.08l-.41-.12a39,39,0,0,0-12.43-3.62l-16.79-.27s-12.29-1.53-20.12,7-13.17,13.54-13.17,13.54l12.51,15,3.35-3.31s-.35,6.91,1.93,10.94l5.41,9.52L403,251.73c-2.22,6.39-9.54,29.76-6.67,52.91,3.55,28.67,4.12,37.05,4.12,37.05l40.54,5.54s16.2-60.7,10.65-84.81c-3.81-16.57-6.72-15.8-7.66-19.39L445,217.24Z" style="fill:#FF725E"></path><path d="M402.38,208.92a10.56,10.56,0,0,1-1.46,3,10.19,10.19,0,0,1-1.91,2.7,10.9,10.9,0,0,1,1.46-3A10.46,10.46,0,0,1,402.38,208.92Z" style="fill:#263238"></path><path d="M438.72,240.27a7.19,7.19,0,0,1-1.29.25c-.84.14-2.06.3-3.56.45a99.39,99.39,0,0,1-11.83.49,102,102,0,0,1-11.81-.91c-1.5-.21-2.71-.41-3.54-.57a6.49,6.49,0,0,1-1.29-.31,7.49,7.49,0,0,1,1.32.11l3.55.41c3,.32,7.17.66,11.78.75s8.77-.12,11.78-.34l3.57-.28A5.75,5.75,0,0,1,438.72,240.27Z" style="fill:#263238"></path><path d="M452.38,285.7a3.87,3.87,0,0,1-.15.79c-.14.57-.32,1.33-.55,2.28-.13.49-.26,1-.41,1.63s-.4,1.23-.62,1.92c-.46,1.36-.91,2.95-1.64,4.61l-1.08,2.64c-.38.91-.87,1.82-1.33,2.79-.89,1.94-2.07,3.9-3.26,6a78.63,78.63,0,0,1-21,22.86c-2,1.36-3.83,2.7-5.7,3.74-.92.54-1.79,1.1-2.67,1.56l-2.54,1.29c-1.59.87-3.14,1.44-4.46,2-.66.28-1.28.55-1.85.77l-1.6.54-2.22.74a4.73,4.73,0,0,1-.78.22,3.85,3.85,0,0,1,.75-.32l2.18-.83,1.58-.58c.57-.23,1.17-.52,1.83-.81,1.3-.6,2.83-1.19,4.41-2.08l2.51-1.32c.87-.46,1.73-1,2.64-1.57,1.85-1.05,3.68-2.4,5.64-3.76a80,80,0,0,0,20.91-22.72c1.2-2.06,2.39-4,3.28-5.93.47-1,1-1.85,1.35-2.76s.76-1.78,1.11-2.61c.75-1.65,1.22-3.21,1.71-4.56.23-.68.47-1.31.65-1.9s.32-1.13.45-1.62l.65-2.24A6,6,0,0,1,452.38,285.7Z" style="fill:#263238"></path><path d="M456.79,208a3,3,0,0,1-.64.37c-.42.22-1,.55-1.87.94a25.51,25.51,0,0,1-7.33,2.42,13.68,13.68,0,0,1-5.35-.29,9.94,9.94,0,0,1-2.77-1.21,10.67,10.67,0,0,1-2.37-2.15,46.54,46.54,0,0,1-3.59-5.74c-1.17-2-2.69-4-5-4.76s-4.74-.19-6.95.44a27.32,27.32,0,0,1-6.64,1.43,9.67,9.67,0,0,1-10-10.28,10.11,10.11,0,0,1,.75-3.25,7.09,7.09,0,0,1,1.51-2.39,13.64,13.64,0,0,0-1.32,2.47,10,10,0,0,0-.65,3.19,9.48,9.48,0,0,0,9.73,9.78,26.79,26.79,0,0,0,6.51-1.45,22,22,0,0,1,3.52-.77,8.53,8.53,0,0,1,3.74.34,7.91,7.91,0,0,1,3.14,2.07,16.5,16.5,0,0,1,2.13,2.92,49.07,49.07,0,0,0,3.52,5.7,9.35,9.35,0,0,0,4.89,3.24,13.29,13.29,0,0,0,5.19.35,26.64,26.64,0,0,0,7.29-2.25l1.91-.85A5,5,0,0,1,456.79,208Z" style="fill:#fff"></path><path d="M433,243.43a4.79,4.79,0,0,0,.71-1.69,5.53,5.53,0,0,0-1.56-4.55,7.25,7.25,0,0,0-2.89-1.81,18.15,18.15,0,0,0-3.9-.85c-1.41-.19-2.92-.3-4.46-.63a10.87,10.87,0,0,1-4.49-1.93,6.94,6.94,0,0,1-1.65-1.9,12.7,12.7,0,0,1-1-2.21,23.31,23.31,0,0,0-1.63-4.11,7.37,7.37,0,0,0-6.08-3.6,7.57,7.57,0,0,0-4.69,1.52,15,15,0,0,0-1.37,1.25s.07-.15.26-.41a6.92,6.92,0,0,1,1-1,7.54,7.54,0,0,1,4.82-1.73,7.73,7.73,0,0,1,6.48,3.72,23.55,23.55,0,0,1,1.7,4.19,8,8,0,0,0,2.49,3.87A10.54,10.54,0,0,0,421,233.4c1.5.33,3,.45,4.41.66,2.82.35,5.5,1.16,7,2.88a5.64,5.64,0,0,1,1.49,4.84,3.47,3.47,0,0,1-.58,1.29A2.11,2.11,0,0,1,433,243.43Z" style="fill:#fff"></path><path d="M448.69,314.45a14.19,14.19,0,0,0-4,.17,45.6,45.6,0,0,0-4.57,1.19,22.06,22.06,0,0,1-6.19,1.12,18,18,0,0,1-7.48-1.47,15.5,15.5,0,0,1-6.78-5.5,14.06,14.06,0,0,1-2.17-9.37,13.57,13.57,0,0,1,1.55-4.93,11.94,11.94,0,0,1,3.53-4c1.42-1.06,3-2,3.71-3.47a3.79,3.79,0,0,0,.34-2.34,9,9,0,0,0-.8-2.32,13.55,13.55,0,0,1-1.68-4.68,10,10,0,0,1,.7-4.74A11.54,11.54,0,0,1,431,268a17.11,17.11,0,0,1,7.5-1.35,38.62,38.62,0,0,0,6.23-.18,10.1,10.1,0,0,0,4.32-1.68,6.44,6.44,0,0,0,2-2.17c.32-.6.39-.95.43-.94a3.5,3.5,0,0,1-.34,1,6.31,6.31,0,0,1-1.94,2.28,10.28,10.28,0,0,1-4.39,1.81,37.67,37.67,0,0,1-6.28.26,16.85,16.85,0,0,0-7.33,1.37,11.13,11.13,0,0,0-5.86,5.92,9.41,9.41,0,0,0-.65,4.51,13.15,13.15,0,0,0,1.64,4.52,9,9,0,0,1,.84,2.45,4.22,4.22,0,0,1-.38,2.65c-.85,1.66-2.47,2.61-3.86,3.65a12,12,0,0,0-4.88,8.54,13.63,13.63,0,0,0,2.06,9,15.24,15.24,0,0,0,6.55,5.38,17.94,17.94,0,0,0,7.31,1.49,21.78,21.78,0,0,0,6.12-1,41,41,0,0,1,4.61-1.11,11.65,11.65,0,0,1,3-.14A5.4,5.4,0,0,1,448.69,314.45Z" style="fill:#fff"></path><path d="M434.54,346.34c-.05,0,0-.7.07-1.95a11.35,11.35,0,0,0-.91-5.12,5,5,0,0,0-2.43-2.46,9.35,9.35,0,0,0-4-.61,11.71,11.71,0,0,1-4.69-.58,5.56,5.56,0,0,1-2-1.57,12.8,12.8,0,0,1-1.38-2.19,18.11,18.11,0,0,0-2.56-4.21,12.7,12.7,0,0,0-3.56-2.84,12.2,12.2,0,0,0-7.51-1.34,13.32,13.32,0,0,0-4.93,1.74c-1.06.65-1.58,1.12-1.61,1.09s.11-.14.35-.37a11.83,11.83,0,0,1,6.14-2.82,12.3,12.3,0,0,1,7.78,1.28,12.84,12.84,0,0,1,3.72,2.92,13.07,13.07,0,0,1,1.47,2c.42.74.78,1.51,1.17,2.27a7,7,0,0,0,3.15,3.53,11.49,11.49,0,0,0,4.49.57,9.87,9.87,0,0,1,4.23.69,5.43,5.43,0,0,1,2.58,2.7,11.28,11.28,0,0,1,.78,5.29c-.05.63-.11,1.12-.17,1.44A3,3,0,0,1,434.54,346.34Z" style="fill:#fff"></path><path d="M410.55,263.64a15.83,15.83,0,0,1-.82,1.72,13.23,13.23,0,0,0-1.49,4.86,6.4,6.4,0,0,0,.73,3.35,27.45,27.45,0,0,0,2.28,3.37A12.08,12.08,0,0,1,413.5,286a10.19,10.19,0,0,1-5.5,7.49,9.15,9.15,0,0,1-4.05,1,8.8,8.8,0,0,1-7.43-4.24,7.41,7.41,0,0,1-.58-1.29,1.64,1.64,0,0,1-.11-.49,18.42,18.42,0,0,0,.87,1.68,8.57,8.57,0,0,0,3.85,3.21,8.14,8.14,0,0,0,3.39.69,8.72,8.72,0,0,0,3.85-1,9.79,9.79,0,0,0,5.2-7.14,11.76,11.76,0,0,0-2.14-8.72,26.91,26.91,0,0,1-2.27-3.45,6.76,6.76,0,0,1-.71-3.57,12.58,12.58,0,0,1,1.68-4.92c.3-.54.54-.95.72-1.22A2.44,2.44,0,0,1,410.55,263.64Z" style="fill:#fff"></path><path d="M440.68,230.09a5.59,5.59,0,0,1-.12-1.19c0-.88-.1-2-.16-3.26-.14-2.86-.32-6.59-.52-10.72s-.34-8-.37-10.74c0-1.38,0-2.49,0-3.26a5.25,5.25,0,0,1,.08-1.2,4.91,4.91,0,0,1,.12,1.2c.05.87.1,2,.17,3.25.13,2.86.31,6.59.52,10.72s.33,8,.36,10.74c0,1.38,0,2.49,0,3.26A5.25,5.25,0,0,1,440.68,230.09Z" style="fill:#263238"></path><path d="M440.33,217.42S442,237.6,440.08,239c-10.69,7.47-24.9,10.47-30,11.36-.71-.26-1.53-.57-2.48-1a7.92,7.92,0,0,1-2.23-1.49,12.66,12.66,0,0,1-2.2-2.52,1,1,0,0,0-1.92.14c-.13.93,1.13,3.49,3.74,5.53s-2.52,2.16-4.39,2.23-7.63.58-8.05,1.19c-.62.88.2,1.74,2.07,1.62s7.47-.07,7.48.94-9.51,1.24-9.51,1.24-2-.28-2.07.88c-.06,2.1,10,1.08,11,1,.67-.08.71,1,0,1.07s-9.49,0-9.57,2.15c-.06,1.64,8.3-.76,10.13.28s-6.53,1.16-6.52,2.73c0,.59.08,1,4.86.25a94.88,94.88,0,0,0,10.12-2.7v.05s49.71-4.26,48.46-26.67c-.84-15.17-.56-12.37-1.49-20.34" style="fill:#b78876"></path></g></svg>